<?xml version="1.0" encoding="UTF-8"?>
<svg xmlns="http://www.w3.org/2000/svg" width="223" height="48" viewBox="0 0 223 48" fill="none">
  <rect opacity="0.2" y="0.764648" width="48" height="47" rx="23.5" fill="white"></rect>
  <path d="M25.8429 35V10.0471H31.2613L39.2106 25.8744L47.0529 10.0471H52.4713V35H47.9085V17.7825L40.9573 31.4353H37.3569L30.4058 17.7825V35H25.8429ZM62.8666 35.4278C61.3456 35.4278 60.098 35.1901 59.1236 34.7148C58.1493 34.2158 57.4245 33.5622 56.9492 32.7542C56.4739 31.9462 56.2362 31.0551 56.2362 30.0807C56.2362 28.4409 56.8779 27.1101 58.1612 26.0882C59.4445 25.0664 61.3694 24.5554 63.936 24.5554H68.4275V24.1276C68.4275 22.9156 68.0829 22.0245 67.3938 21.4541C66.7046 20.8838 65.8491 20.5986 64.8272 20.5986C63.9003 20.5986 63.0923 20.8244 62.4032 21.2759C61.714 21.7036 61.2862 22.3453 61.1199 23.2008H56.664C56.7828 21.9175 57.2106 20.8006 57.9473 19.85C58.7078 18.8994 59.6821 18.1746 60.8703 17.6755C62.0586 17.1527 63.3894 16.8913 64.8628 16.8913C67.3819 16.8913 69.3662 17.5211 70.8159 18.7806C72.2655 20.0401 72.9903 21.8225 72.9903 24.1276V35H69.1048L68.6771 32.1482C68.1542 33.0988 67.4175 33.8831 66.4669 34.5009C65.5401 35.1188 64.34 35.4278 62.8666 35.4278ZM63.9003 31.8631C65.2074 31.8631 66.2174 31.4353 66.9303 30.5798C67.6671 29.7242 68.1305 28.6667 68.3206 27.4072H64.4351C63.2231 27.4072 62.3556 27.6329 61.8328 28.0845C61.31 28.5122 61.0486 29.0469 61.0486 29.6886C61.0486 30.3778 61.31 30.9125 61.8328 31.2927C62.3556 31.6729 63.0448 31.8631 63.9003 31.8631ZM76.9099 35V17.3191H80.9736L81.4014 20.6342C82.043 19.4935 82.9104 18.5905 84.0036 17.9251C85.1206 17.2359 86.4276 16.8913 87.9248 16.8913V21.7036H86.6415C85.6434 21.7036 84.7522 21.8581 83.968 22.1671C83.1837 22.476 82.5659 23.0107 82.1143 23.7712C81.6866 24.5316 81.4727 25.5892 81.4727 26.9438V35H76.9099ZM90.6086 35V9.33412H95.1715V24.4841L101.445 17.3191H106.864L99.6273 25.3753L108.04 35H102.337L95.1715 26.1239V35H90.6086ZM118.601 35V10.0471H127.12C130.043 10.0471 132.443 10.5699 134.321 11.6155C136.222 12.6374 137.624 14.0871 138.527 15.9645C139.454 17.8181 139.917 20.0045 139.917 22.5235C139.917 25.0426 139.454 27.2408 138.527 29.1182C137.624 30.9719 136.222 32.4215 134.321 33.4672C132.443 34.4891 130.043 35 127.12 35H118.601ZM123.163 31.0788H126.906C128.998 31.0788 130.649 30.7461 131.861 30.0807C133.073 29.3915 133.941 28.4172 134.463 27.1576C134.986 25.8744 135.248 24.3296 135.248 22.5235C135.248 20.7412 134.986 19.2084 134.463 17.9251C133.941 16.6418 133.073 15.6555 131.861 14.9664C130.649 14.2772 128.998 13.9326 126.906 13.9326H123.163V31.0788ZM145.861 14.5742C145.03 14.5742 144.34 14.3247 143.794 13.8256C143.271 13.3266 143.01 12.6968 143.01 11.9364C143.01 11.1759 143.271 10.558 143.794 10.0827C144.34 9.58365 145.03 9.33412 145.861 9.33412C146.693 9.33412 147.37 9.58365 147.893 10.0827C148.44 10.558 148.713 11.1759 148.713 11.9364C148.713 12.6968 148.44 13.3266 147.893 13.8256C147.37 14.3247 146.693 14.5742 145.861 14.5742ZM143.58 35V17.3191H148.143V35H143.58ZM159.956 29.7242C159.101 29.7242 158.305 29.6292 157.568 29.4391L156.249 30.758C156.653 30.9719 157.2 31.1501 157.889 31.2927C158.578 31.4353 159.695 31.5779 161.24 31.7205C163.592 31.9344 165.303 32.4928 166.373 33.3959C167.442 34.2989 167.977 35.5466 167.977 37.1388C167.977 38.1845 167.692 39.1707 167.121 40.0975C166.551 41.0481 165.672 41.8086 164.484 42.3789C163.295 42.9731 161.774 43.2701 159.921 43.2701C157.402 43.2701 155.37 42.7948 153.825 41.8442C152.28 40.9174 151.508 39.5153 151.508 37.6379C151.508 36.0456 152.28 34.6673 153.825 33.5028C153.35 33.2889 152.934 33.0632 152.577 32.8255C152.245 32.5879 151.948 32.3384 151.686 32.0769V31.2571L154.788 27.9775C153.409 26.7655 152.72 25.2089 152.72 23.3078C152.72 22.1195 153.005 21.0382 153.576 20.0639C154.17 19.0895 155.001 18.3172 156.071 17.7468C157.14 17.1765 158.435 16.8913 159.956 16.8913C160.955 16.8913 161.881 17.0339 162.737 17.3191H169.439V20.0995L166.409 20.3134C166.884 21.2165 167.121 22.2146 167.121 23.3078C167.121 24.496 166.836 25.5773 166.266 26.5516C165.696 27.526 164.864 28.2984 163.771 28.8687C162.701 29.4391 161.43 29.7242 159.956 29.7242ZM159.956 26.2308C160.883 26.2308 161.644 25.9813 162.238 25.4822C162.856 24.9832 163.165 24.2702 163.165 23.3434C163.165 22.4166 162.856 21.7036 162.238 21.2046C161.644 20.7055 160.883 20.456 159.956 20.456C158.982 20.456 158.198 20.7055 157.604 21.2046C157.01 21.7036 156.713 22.4166 156.713 23.3434C156.713 24.2702 157.01 24.9832 157.604 25.4822C158.198 25.9813 158.982 26.2308 159.956 26.2308ZM155.679 37.1745C155.679 38.0538 156.083 38.7073 156.891 39.1351C157.723 39.5866 158.733 39.8124 159.921 39.8124C161.061 39.8124 161.988 39.5747 162.701 39.0994C163.414 38.6479 163.771 38.03 163.771 37.2458C163.771 36.6041 163.533 36.0694 163.058 35.6416C162.606 35.2139 161.691 34.9525 160.313 34.8574C159.339 34.7861 158.435 34.6792 157.604 34.5366C156.915 34.9168 156.415 35.3327 156.107 35.7842C155.821 36.2358 155.679 36.6992 155.679 37.1745ZM174.791 14.5742C173.959 14.5742 173.27 14.3247 172.723 13.8256C172.2 13.3266 171.939 12.6968 171.939 11.9364C171.939 11.1759 172.2 10.558 172.723 10.0827C173.27 9.58365 173.959 9.33412 174.791 9.33412C175.622 9.33412 176.3 9.58365 176.822 10.0827C177.369 10.558 177.642 11.1759 177.642 11.9364C177.642 12.6968 177.369 13.3266 176.822 13.8256C176.3 14.3247 175.622 14.5742 174.791 14.5742ZM172.509 35V17.3191H177.072V35H172.509ZM189.278 35C187.424 35 185.939 34.5485 184.822 33.6454C183.705 32.7424 183.146 31.1382 183.146 28.8331V21.1333H180.116V17.3191H183.146L183.681 12.578H187.709V17.3191H192.486V21.1333H187.709V28.8687C187.709 29.7242 187.888 30.3184 188.244 30.6511C188.624 30.96 189.266 31.1145 190.169 31.1145H192.379V35H189.278ZM202.065 35.4278C200.544 35.4278 199.296 35.1901 198.322 34.7148C197.347 34.2158 196.622 33.5622 196.147 32.7542C195.672 31.9462 195.434 31.0551 195.434 30.0807C195.434 28.4409 196.076 27.1101 197.359 26.0882C198.642 25.0664 200.567 24.5554 203.134 24.5554H207.625V24.1276C207.625 22.9156 207.281 22.0245 206.592 21.4541C205.903 20.8838 205.047 20.5986 204.025 20.5986C203.098 20.5986 202.29 20.8244 201.601 21.2759C200.912 21.7036 200.484 22.3453 200.318 23.2008H195.862C195.981 21.9175 196.409 20.8006 197.145 19.85C197.906 18.8994 198.88 18.1746 200.068 17.6755C201.257 17.1527 202.587 16.8913 204.061 16.8913C206.58 16.8913 208.564 17.5211 210.014 18.7806C211.463 20.0401 212.188 21.8225 212.188 24.1276V35H208.303L207.875 32.1482C207.352 33.0988 206.615 33.8831 205.665 34.5009C204.738 35.1188 203.538 35.4278 202.065 35.4278ZM203.098 31.8631C204.405 31.8631 205.415 31.4353 206.128 30.5798C206.865 29.7242 207.328 28.6667 207.519 27.4072H203.633C202.421 27.4072 201.554 27.6329 201.031 28.0845C200.508 28.5122 200.246 29.0469 200.246 29.6886C200.246 30.3778 200.508 30.9125 201.031 31.2927C201.554 31.6729 202.243 31.8631 203.098 31.8631ZM216.108 35V9.33412H220.671V35H216.108Z" fill="white"></path>
</svg>
