<svg xmlns="http://www.w3.org/2000/svg" id="uuid-d90c446a-8d94-4710-b91f-8c3a6a9fabb8" viewBox="0 0 275.16 110.68"><g id="uuid-c069a496-ef02-476e-a7ff-a9b48c78e7d9"><path id="uuid-26bdc3d0-9a96-40eb-bb46-94b76df36d32" d="m0,78.32v32.36h30.56c.3-16.34.37-5.62.37-42.91V0H0v78.32Z" style="fill:#eb4434;"></path><path id="uuid-17b2b174-d099-49c4-9a71-9a897b411f96" d="m16.08,14.04l-2.72,1.75c-.7-1.15-1.25-1.7-1.7-1.97-.45-.27-1.25-.5-1.82-.5s-1.35.22-1.8.5-1,.8-1.25,1.17c-.35.55-.45,1.32-.5,3.74l-.05,3.07h12.72v-2c-4.89,0-5.01-.02-5.14-.55-.07-.32-.12-.8-.07-1.07.07-.32.95-1.02,2.47-1.95,1.3-.8,2.44-1.52,2.54-1.62.12-.1.17-.65.12-1.25l-.07-1.07-2.74,1.75ZM6.25,30.28v3.49h12.72v-6.98h-1.62c.02,3.39-.05,4.54-.15,4.74-.15.27-.6.37-1.9.32-.92,0-1.8-.05-1.9-.05-.1-.02-.17-1.1-.17-2.39v-2.37h-1.75c0,4.09-.1,4.74-.32,4.76-.17.02-.82.05-1.42.07-.62.02-1.32-.05-1.57-.15-.37-.17-.42-.55-.42-2.57v-2.37h-1.5v3.49Zm0,10.48v1h12.72v-2H6.25v1Zm0,7.93l-.02,1.42c7.46,2.72,9.6,3.59,9.58,3.74-.02.12-2.17,1-4.74,1.9l-4.69,1.65-.15,2.94c9-.05,11.87-.07,12.2-.1.45-.02.55-.17.55-.9v-.87c-6.49.05-8.61.05-8.9.02-.32,0-.52-.1-.47-.2.05-.12,2.2-.92,4.74-1.82l4.66-1.62-.15-1.95c-6.96-2.47-9.1-3.29-9.23-3.42-.15-.12.1-.25.62-.35.47-.07,2.64-.1,4.79-.07l3.94.05v-1.87H6.25v1.45Zm.02,20.15v3.62l12.72-.02-.02-7.23-1.62.12c-.02,3.29-.05,4.44-.07,4.69-.02.37-.3.42-2.02.42l-2,.02-.02-4.74h-1.75l.02,4.74c-3.09,0-3.54-.1-3.62-.37-.07-.22-.12-1.4-.12-2.62l-.02-2.24h-1.5l.02,3.62Zm9.88,9.63c-1.95,1.25-2.79,1.67-2.87,1.42-.05-.17-.4-.65-.75-1.05-.35-.37-1.02-.82-1.5-.95-.5-.15-1.27-.2-1.75-.12-.5.1-1.12.32-1.45.55-.3.2-.77.85-1.05,1.42-.4.85-.5,1.6-.5,3.74v2.69l12.72-.02v-2c-4.89,0-5.01-.02-5.14-.55-.07-.3-.1-.77-.07-1.05.05-.3,1.05-1.02,2.64-2l2.54-1.52c.02-1.82-.02-2.37-.05-2.34-.02,0-1.3.8-2.79,1.77Zm-7.76,12.9c-.42.22-1.07.92-1.42,1.55-.62,1.02-.67,1.32-.67,3.79v2.69l12.72-.02v-2h-4.74c0-2.02-.2-3.17-.42-3.84-.27-.72-.75-1.47-1.2-1.8-.5-.38-1.21-.62-2.15-.7-1-.07-1.57,0-2.12.32Z" style="fill:#fff;"></path><g><path d="m58.76,34.25c.57.77,1.75,1.92,2.64,2.59.87.67,2,1.4,2.47,1.65.47.25,1.72.7,2.74,1.02,1.42.45,2.44.57,4.37.57,1.55,0,3.12-.17,4.12-.45.9-.22,2.29-.77,3.12-1.22s2.17-1.47,3.02-2.29c.9-.9,1.85-2.12,2.29-3.07.45-.85.95-2.24,1.17-3.12.2-.85.35-2.64.37-3.99v-2.42h-14.22v4.24c7.73,0,9.98.07,9.98.17,0,.12-.17.82-.4,1.57s-.67,1.77-.97,2.24c-.3.47-1,1.25-1.52,1.72-.55.47-1.6,1.15-2.34,1.47-.75.35-2.1.75-2.99.87-1.15.17-2.15.17-3.37-.02-.97-.15-2.32-.55-2.99-.9-.7-.32-1.92-1.2-2.72-1.92-1.05-.97-1.72-1.87-2.37-3.19-.9-1.82-.9-1.92-.9-4.86s.02-3.07.85-4.76c.5-1.05,1.4-2.27,2.17-3.04.75-.72,2.05-1.65,2.89-2.07.87-.42,2.34-.87,3.29-1,1.22-.17,2.22-.17,3.24.02.82.15,2.02.47,2.62.75.62.27,1.57.85,2.1,1.3l.95.8,2.99-2.99c-1.67-1.45-2.84-2.2-3.67-2.62-.82-.4-2.17-.9-2.99-1.12-.87-.22-2.49-.37-3.99-.35-1.55,0-3.04.17-3.99.45-.82.22-2.22.82-3.09,1.3-.9.47-2.42,1.6-3.37,2.52-.97.9-2.2,2.37-2.69,3.24-.52.87-1.2,2.37-1.5,3.32-.4,1.32-.55,2.37-.52,4.24,0,1.7.15,2.99.45,3.99.25.82.72,2.07,1.07,2.74.35.7,1.1,1.87,1.7,2.62Z" style="fill:#008ccf;"></path><path d="m146.68,22.5c-1.85-1.17-2.77-1.62-3.24-1.75-.5-.15-1.45-.25-2.12-.22-.7,0-1.7.15-2.24.32-.55.15-1.52.6-2.12.95-.62.35-1.62,1.17-2.2,1.8-.57.62-1.32,1.67-1.65,2.34-.35.65-.75,1.9-.9,2.79-.22,1.2-.22,2.02-.02,3.12.15.82.6,2.17,1,2.99.42.87,1.22,1.97,1.95,2.62.67.62,1.77,1.4,2.44,1.72.7.32,1.87.7,2.62.82,1.07.2,1.72.15,2.99-.17.95-.22,2.02-.7,2.54-1.12l.95-.75c0,2.02-.12,3.04-.25,3.54-.15.52-.62,1.35-1.07,1.87-.42.5-1.17,1.05-1.62,1.25-.42.17-1.4.32-2.12.32-.85,0-1.7-.2-2.42-.57-.65-.32-1.42-1-1.87-1.62-.4-.57-.82-1.05-.95-1.05-.1,0-.9.27-1.8.62s-1.62.77-1.62.95c0,.15.42.9.92,1.65.52.75,1.57,1.77,2.32,2.29.82.57,2.02,1.12,2.99,1.37,1.17.3,2.12.37,3.37.25,1.07-.1,2.32-.42,3.22-.85.92-.42,1.92-1.15,2.62-1.92.82-.87,1.35-1.77,1.77-2.99q.62-1.75.62-11.85v-10.1l-4.12-.12v1.5Zm-.1,10.28c-.17.45-.65,1.2-1.05,1.67s-1.17,1.05-1.72,1.3c-.55.25-1.45.47-2,.47s-1.55-.25-2.24-.6c-.75-.37-1.52-1-1.92-1.57-.37-.52-.8-1.25-.95-1.62-.12-.4-.25-1.35-.25-2.12,0-.97.17-1.85.57-2.69.3-.67.95-1.55,1.42-1.92.47-.37,1.15-.77,1.5-.92.32-.12,1.15-.25,1.8-.25.65-.02,1.5.1,1.87.25.37.12,1.07.62,1.52,1.05.47.45,1.05,1.25,1.32,1.8.3.65.45,1.57.47,2.67,0,.95-.15,2.07-.35,2.49Z" style="fill:#008ccf;"></path><path d="m7.92,27.74c-.05-.52-.09.1-.09,1.42s.05,1.87.1,1.12c.02-.36.04-.8.04-1.23-.01-.23-.03-.47-.04-.69,0-.22,0-.43,0-.62Z" style="fill:#eb4434;"></path><path d="m179.85,35.58s-.07-.06-.11-.08c-.78-.53-1.56-1.06-2.34-1.59-.17-.11-.36-.23-.56-.19-.14.03-.25.15-.36.25-.6.62-1.25,1.21-2.02,1.61-1.17.62-2.58.79-3.86.45s-2.43-1.18-3.14-2.3c-.08-.13-.16-.28-.11-.42.05-.13.19-.19.32-.25,3.82-1.57,7.64-3.15,11.46-4.72.44-.18.94-.44.98-.91.02-.25-.09-.48-.21-.7-.6-1.16-1.22-2.32-2.08-3.3-1.92-2.18-5.03-3.22-7.89-2.72s-5.41,2.48-6.66,5.1c-2.57,5.38.54,12.21,6.25,13.86.5.14,1,.25,1.52.3,3.34.37,6.82-1.18,8.78-3.9.08-.11.16-.24.12-.37-.02-.05-.05-.09-.09-.13Zm-13.16-5.78c-.28-.24-.06-1.03.06-1.44.25-.86.71-1.66,1.34-2.31.95-.97,2.27-1.57,3.63-1.65.71-.04,1.44.07,2.07.4s1.15.9,1.33,1.59c-2.61,1.13-5.21,2.26-7.82,3.39-.3.13-.49.12-.6.03Z" style="fill:#eb4434;"></path><path d="m7.95,68.82c.02-.3.03-.69.04-1.07-.01-.24-.02-.49-.04-.72,0-.22,0-.43,0-.62-.05-.52-.09.05-.09,1.3s.05,1.82.1,1.12Z" style="fill:#eb4434;"></path><polygon points="154.91 39.46 159.4 39.46 159.38 10.77 154.89 10.77 154.91 25.12 154.91 39.46" style="fill:#3bb34b;"></polygon><path d="m129.54,30.36c0-.21,0-.41-.02-.62-.12-2.02-.89-4.01-2.17-5.58-1.02-1.25-2.36-2.25-3.85-2.87-3.66-1.52-8.21-.56-10.95,2.31-.91.96-1.63,2.1-2.03,3.36-.35,1.1-.46,2.26-.47,3.41-.02,2.74.85,5.16,2.9,7.03,1.9,1.74,4.48,2.75,7.07,2.68,3.33-.1,6.55-2.02,8.22-4.9.84-1.46,1.29-3.13,1.3-4.82Zm-4.61,1.93c-.21.64-.53,1.25-.95,1.78-1.08,1.37-2.84,2.21-4.59,2.11-4.09-.22-6.18-4.98-4.6-8.47.83-1.83,2.68-3.21,4.69-3.3,1.33-.06,2.67.43,3.69,1.29s1.7,2.09,1.97,3.4c.21,1.05.14,2.16-.2,3.17Z" style="fill:#ffbb14;"></path><path d="m146.18,66.32c-.75-.07-1.97-.02-2.74.07h0c-.75.12-1.97.45-2.74.72-.75.3-1.97.95-2.72,1.47-.72.5-1.72,1.5-2.2,2.17-.47.7-.95,1.3-1.07,1.32-.12.02-.22-1.05-.22-2.44l-.02-2.49-5.99.02.02,33.92,6.24-.02c0-17.31.07-19.68.37-21.08.2-.95.65-2.2.97-2.74.32-.55,1.12-1.5,1.8-2.1.67-.62,1.77-1.37,2.47-1.67.67-.32,2.07-.7,3.12-.82,1.02-.15,2.39-.22,3.07-.2l1.22.05c-.07-4.64-.12-6.01-.15-6.04s-.65-.1-1.42-.15Z" style="fill:#767777;"></path><path d="m119.69,73.41c-.5-1.02-1.35-2.2-2.29-3.14-1-1-2.15-1.82-3.39-2.42-1.02-.5-2.54-1.1-3.37-1.3-.82-.2-2.49-.42-3.74-.5-1.22-.05-2.92,0-3.74.12h0c-.82.12-2.17.47-2.99.77-.82.3-2.05.9-2.74,1.35-.67.45-1.9,1.55-2.69,2.42-.82.87-1.7,2-1.95,2.52-.25.5-.42.97-.4,1,.02.05,1.35.65,2.89,1.32,2.39,1.05,2.87,1.17,3.04.85.12-.2.22-.45.22-.55.02-.12.37-.6.82-1.1.45-.52,1.2-1.17,1.7-1.47.47-.3,1.47-.75,2.24-1,1-.32,1.92-.42,3.49-.35,1.75.07,2.39.22,3.74.87,1.02.5,2,1.22,2.67,2,.6.67,1.25,1.72,1.45,2.34s.37,1.7.37,2.42v1.32c-2.22-.92-3.54-1.35-4.37-1.52-.82-.17-2.97-.32-4.74-.32-2.27,0-3.74.12-4.86.42-.9.22-2.52.87-3.62,1.4-1.27.65-2.49,1.47-3.32,2.32-.75.75-1.7,2.05-2.12,2.94-.77,1.55-.8,1.75-.8,4.61s.02,3.07.9,4.89c.65,1.27,1.32,2.22,2.24,3.07.75.67,2,1.52,2.79,1.92.77.4,2.12.9,2.99,1.1.85.2,2.44.37,3.54.37s2.72-.17,3.62-.4c.9-.2,2.29-.75,3.09-1.17.85-.47,2.15-1.52,3.04-2.49l1.6-1.67.12,4.61,6.11.12c0-20.25-.07-22.55-.4-24.15-.22-1.05-.75-2.67-1.17-3.54Zm-4.74,14.52c-.1.72-.55,1.97-1,2.77-.45.8-1.3,1.95-1.92,2.52-.62.57-1.62,1.32-2.24,1.7-.62.35-1.85.85-2.74,1.07-1.15.3-2.07.37-3.12.25-.82-.07-2.12-.42-2.87-.77-.75-.32-1.7-.92-2.07-1.3s-.85-1.25-1.02-1.95c-.22-.77-.27-1.6-.17-2.24.1-.55.37-1.32.57-1.75.22-.4.82-1.15,1.35-1.67.52-.5,1.47-1.15,2.1-1.42.6-.27,1.8-.6,2.62-.72h0c.82-.12,1.92-.25,2.42-.25.52-.02,1.82.07,2.87.22,1.07.15,2.49.5,3.19.75.67.25,1.47.7,1.75.97.42.47.47.72.3,1.82Z" style="fill:#767777;"></path><path d="m88.06,61.56c-.27-.82-.8-2-1.17-2.62s-1.27-1.77-2.05-2.57c-.77-.8-2.07-1.9-2.89-2.42s-2.39-1.27-3.49-1.67l-2-.7-20.05-.15v24.84s0,24.82,0,24.82l6.36-.12.12-20.08c13.24-.15,13.97-.2,15.46-.7.87-.3,2.32-.95,3.19-1.47.87-.52,2.29-1.62,3.12-2.44,1.05-1.02,1.87-2.15,2.57-3.49.65-1.3,1.12-2.67,1.32-3.87.2-1.12.27-2.67.17-3.87-.07-1.1-.37-2.67-.67-3.49Zm-6.09,6.73c-.22.82-.82,2.1-1.35,2.84-.5.72-1.3,1.62-1.8,1.97-.47.35-1.37.87-2,1.15-1.02.47-1.67.52-13.97.65l.05-8.76.02-8.76,12.52.2,1.6.75c1,.45,2,1.17,2.69,1.9.6.67,1.37,1.8,1.7,2.49.35.72.7,1.95.8,2.69.1.95.02,1.85-.27,2.87Z" style="fill:#767777;"></path><path d="m235.18,85.08h13.42c-.3-3.97-.55-5.86-.77-6.73-.22-.9-.85-2.59-1.42-3.74-.8-1.72-1.37-2.49-3.02-4.12-1.4-1.37-2.54-2.24-3.67-2.79-.87-.42-2.29-.95-3.12-1.17-.82-.2-2.49-.42-3.74-.5-1.22-.07-2.92-.02-3.74.12-.82.12-1.87.35-2.37.5-.47.17-1.47.6-2.24.97-.75.37-1.97,1.2-2.72,1.8-.77.62-1.92,1.82-2.59,2.72-.67.87-1.67,2.49-2.2,3.59-.52,1.1-1.12,2.82-1.32,3.82s-.37,3.04-.37,4.54.17,3.57.37,4.56.9,2.87,1.52,4.17c.95,1.95,1.55,2.74,3.19,4.39,1.6,1.6,2.47,2.24,4.14,3.07,1.17.57,2.92,1.2,3.87,1.4.97.2,2.82.37,4.12.37s3.17-.17,4.12-.4c.97-.2,2.59-.77,3.62-1.27,1.37-.67,2.37-1.42,3.74-2.82,1.05-1.05,2.2-2.49,2.59-3.24.37-.77.6-1.45.47-1.55-.1-.1-1.3-.65-2.64-1.2-1.32-.55-2.52-1-2.62-1s-.45.52-.8,1.15c-.35.65-1.2,1.67-1.87,2.27-.7.6-1.85,1.32-2.57,1.57-.7.27-2.12.57-3.12.65-1.27.12-2.24.05-3.37-.25-.85-.22-2.02-.65-2.62-.95-.57-.27-1.67-1.12-2.42-1.82-.75-.72-1.67-1.92-2.07-2.64-.37-.75-.85-2.17-1.05-3.14-.2-1-.32-1.92-.25-2.07s4.84-.25,13.52-.25Zm-13-5.81c.07-.3.4-1.12.72-1.82.32-.67,1.02-1.75,1.55-2.37.52-.6,1.42-1.4,1.95-1.72.55-.35,1.5-.82,2.12-1.05.72-.3,1.85-.45,3.22-.45,1.47-.02,2.67.12,3.82.47,1.3.4,2,.8,2.99,1.72.72.67,1.62,1.75,1.97,2.42.37.67.8,1.7,1.22,3.34h-19.71l.15-.55Z" style="fill:#767777;"></path><path d="m208.12,72.61c-.42-.87-1.2-2.12-1.75-2.74-.55-.6-1.6-1.5-2.32-1.97-.75-.47-1.97-1.07-2.74-1.3-.75-.22-2.32-.47-3.49-.55-1.15-.07-2.69-.02-3.42.1-.72.12-2.17.65-3.24,1.12-1.47.7-2.34,1.32-3.64,2.62-.95.97-1.75,1.75-1.8,1.75-.07,0-.1-1.02-.1-2.24l-.02-2.24h-5.99l.02,33.92,6.26-.12c-.02-14.14.07-19.11.22-20.2.15-1.25.52-2.57.97-3.49.4-.82,1.2-2.05,1.8-2.72.65-.72,1.7-1.52,2.59-1.95,1.37-.7,1.65-.75,3.87-.67,2.07.07,2.59.17,3.87.82.95.5,1.75,1.15,2.29,1.87.47.62,1.02,1.7,1.25,2.37.35,1.07.42,2.92.5,12.67l.07,11.4h6.24c-.02-20.68-.1-23.97-.35-25.19-.2-.87-.67-2.34-1.1-3.24Z" style="fill:#767777;"></path><path d="m274.09,66.62c-.57-.12-1.8-.27-2.69-.35-.87-.07-1.9-.07-2.24,0-.32.05-1.3.32-2.12.62-.82.3-2.05.87-2.74,1.32-.67.45-1.6,1.22-2.05,1.72-.45.5-1,1.27-1.25,1.72l-.42.8-.15-5.36-6.24.02.02,33.92,6.49-.02.12-21.58c1.05-2.22,1.85-3.39,2.44-4.04.62-.65,1.7-1.52,2.44-1.95,1.27-.7,1.47-.75,4.27-.75,1.72,0,2.97-.1,3.04-.25.05-.12.55-1.37,1.12-2.74.55-1.37,1.02-2.57,1.02-2.67s-.5-.3-1.07-.42Z" style="fill:#767777;"></path><path d="m171.85,95.51c-.3.02-1.3.07-2.2.1-1.07.05-1.87-.07-2.37-.32-.4-.22-.95-.6-1.17-.85-.25-.27-.6-.92-.82-1.47-.27-.8-.35-2.79-.37-10.55v-9.53h8.23v-5.74h-8.23l-.02-10.48h-6.49v5.24l.02,5.24h-5.99v5.74h5.99c.15,19.33.2,20.75.6,21.95.22.75.82,1.95,1.27,2.62.47.7,1.37,1.65,2.05,2.1.65.47,1.82,1.1,2.57,1.37,1.07.37,2.02.5,4.37.5,1.65,0,3.47-.12,4.07-.3.57-.17,1.05-.45,1.05-.62s-.42-1.37-.97-2.67c-.87-2.1-1.05-2.37-1.57-2.32Z" style="fill:#767777;"></path><path d="m6.25,34.02c0,.17,2.27.25,6.36.25s6.36-.1,6.36-.25-2.29-.25-6.36-.25-6.36.1-6.36.25Z" style="fill:#ef4937;"></path><path d="m7.92,27.74s0,.03,0,.05c.03.33.04.79.04,1.26.04.81.09,1.61.11,1.98.05.47.1-.32.12-1.8.02-1.47-.05-2.69-.15-2.69-.08,0-.12.5-.13,1.2Z" style="fill:#ef4937;"></path><path d="m11.81,49.19c-.1.1,1.45.2,3.47.17,2,0,3.59-.07,3.54-.2-.05-.1-1.6-.17-3.44-.17s-3.44.1-3.57.2Z" style="fill:#ef4937;"></path><path d="m13.98,19.31c.12,0,.25-.4.25-.87s-.05-.87-.1-.87-.17.07-.27.17c-.12.07-.2.47-.17.87.02.37.15.7.3.7Z" style="fill:#ef4937;"></path><ellipse cx="12.49" cy="39.51" rx="6.49" ry=".25" style="fill:#ef4937;"></ellipse><path d="m7.98,67.75c.04.78.08,1.52.11,1.82.05.42.1-.4.12-1.8.02-1.42-.05-2.57-.15-2.57-.08,0-.12.5-.13,1.2,0,.02,0,.03,0,.05.03.34.04.82.04,1.3Z" style="fill:#ef4937;"></path><path d="m93.01,38.97c.68.35,1.42.63,2.21.82,1.03.26,2.1.35,3.16.26,3.06-.26,5.98-2.11,7.42-4.83-.14.26-.29.51-.43.77,2.13-2.94,2.4-7.11.67-10.31s-5.37-5.25-8.99-5.08-7.06,2.55-8.48,5.89c-1.1,2.58-.96,5.63.26,8.14.93,1.92,2.38,3.4,4.19,4.33Zm10.2-9.59c.05.55.05,1.37,0,1.87-.05.47-.1.02-.1-1s.05-1.42.1-.87Zm-11.12.5c.01-.23.04-.45.08-.68.31-1.75,1.45-3.34,3.03-4.13s3.59-.71,5.07.27c.95.63,1.65,1.58,2.08,2.64.65,1.63.63,3.54-.15,5.12s-2.34,2.76-4.08,3.01c-3.56.5-6.21-2.91-6.03-6.23Z" style="fill:#ef4937;"></path><path d="m7.95,67.02c.01.24.02.48.04.72,0-.47,0-.95-.04-1.3,0-.02,0-.03,0-.05,0,.2,0,.4,0,.62Z" style="fill:#ef4937;"></path><path d="m7.92,27.79s0-.03,0-.05c0,.2,0,.4,0,.62.01.22.02.46.04.69,0-.47-.01-.94-.04-1.26Z" style="fill:#ef4937;"></path><path d="m8,18.56q.2-.87.15.2l-.02,1.07,3.99-.15c.1-1.55.05-2.17-.05-2.37-.07-.2-.2-.55-.25-.75-.05-.2-.2-.47-.35-.62-.15-.12-.75-.27-1.37-.3-.72-.02-1.2.1-1.47.37-.2.25-.5.82-.62,1.3-.15.47-.25,1.15-.22,1.5.02.5.07.47.22-.25Z" style="fill:#eb4434;"></path><path d="m10.27,93.24c-.52,0-1.15.1-1.42.27-.25.17-.6.65-.77,1.1-.22.57-.22.72,0,.6.22-.15.25.1.12,1l-.17,1.17h4.49c-.12-2.52-.27-3.02-.7-3.49-.42-.45-.85-.62-1.55-.65Z" style="fill:#eb4434;"></path><path d="m8.22,82.04l-.07,2.12h4.12c0-1.92-.12-2.54-.25-2.62-.15-.07-.2-.22-.12-.37.05-.12,0-.25-.12-.25-.15,0-.2-.1-.12-.25.05-.12-.07-.35-.32-.45-.25-.12-.85-.25-1.35-.25-.57-.02-1.05.12-1.27.4-.2.22-.5.82-.65,1.3-.17.47-.27,1.15-.25,1.5.02.52.07.47.22-.25l.2-.87Z" style="fill:#eb4434;"></path><path d="m103.21,31.25c.05-.5.05-1.32,0-1.87-.05-.55-.1-.17-.1.87s.05,1.47.1,1Z" style="fill:#eb4434;"></path></g><path id="uuid-f4a4e7b0-8cea-4d34-807c-d9a080138b2a" d="m7.9,95.31c-.12.1-.2.47-.17.87.02.37.15.7.3.7.12,0,.25-.4.25-.87s-.05-.87-.1-.87c-.02,0-.17.07-.27.17Z" style="fill:#ef4937;"></path></g></svg>