<svg xmlns="http://www.w3.org/2000/svg" width="99" height="24" viewBox="0 0 99 24" fill="none"><g clip-path="url(#clip0_327_4)"><path d="M0 3.3999H3.6V16.4999H10.2V19.7999H0V3.3999Z" fill="black"></path><path d="M15.1998 8.69995H11.7998V19.8H15.1998V8.69995Z" fill="black"></path><path d="M13.5 3.19995C14.6 3.19995 15.5 4.09995 15.5 5.19995C15.5 6.29995 14.6 7.19995 13.5 7.19995C12.4 7.19995 11.5 6.29995 11.5 5.19995C11.5 4.09995 12.4 3.19995 13.5 3.19995Z" fill="black"></path><path d="M29.5 3.3999H33V13.1999L36.9 8.6999H41.2L36.6 13.7999L41 19.7999H36.7L33 14.2999V19.7999H29.6L29.5 3.3999Z" fill="black"></path><path d="M17.0996 8.70007H20.3996V10.2001H20.4996C21.1996 9.00007 22.3996 8.30007 23.7996 8.40007C27.2996 8.40007 27.8996 10.7001 27.8996 13.7001V19.8001H24.4996V14.4001C24.4996 13.1001 24.4996 11.4001 22.6996 11.4001C20.8996 11.4001 20.5996 12.8001 20.5996 14.2001V19.7001H17.1996L17.0996 8.70007Z" fill="black"></path><path d="M48.4004 12.8999C48.4004 11.6999 47.5004 10.7999 46.3004 10.7999C45.1004 10.6999 44.0004 11.6999 43.8004 12.8999H48.4004ZM51.3004 17.7999C50.1004 19.1999 48.4004 19.9999 46.6004 19.9999C43.2004 19.9999 40.4004 17.6999 40.4004 14.0999C40.4004 10.4999 43.2004 8.1999 46.6004 8.1999C49.8004 8.1999 51.8004 10.4999 51.8004 14.0999V15.1999H43.8004C44.0004 16.3999 45.1004 17.3999 46.4004 17.2999C47.4004 17.2999 48.3004 16.7999 48.9004 15.8999L51.3004 17.7999ZM58.9004 11.2999C57.5004 11.1999 56.2004 12.2999 56.1004 13.7999C56.1004 13.8999 56.1004 14.0999 56.1004 14.1999C56.1004 15.6999 57.3004 16.9999 58.9004 16.9999C60.5004 16.9999 61.7004 15.7999 61.7004 14.1999C61.8004 12.7999 60.8004 11.4999 59.3004 11.3999C59.2004 11.2999 59.0004 11.2999 58.9004 11.2999ZM64.8004 19.7999H61.6004V18.2999H61.5004C60.7004 19.3999 59.4004 19.9999 58.1004 19.9999C54.8004 19.9999 52.6004 17.5999 52.6004 14.2999C52.6004 11.1999 54.5004 8.3999 57.7004 8.3999C59.1004 8.2999 60.4004 8.7999 61.2004 9.8999H61.3004V3.3999H64.7004V19.7999H64.8004Z" fill="black"></path><path d="M89.7998 0H69.9998C69.0998 0 68.2998 0.7 68.2998 1.7V21.5C68.2998 22.4 69.0998 23.2 69.9998 23.2H89.7998C90.6998 23.2 91.4998 22.5 91.4998 21.5V1.7C91.4998 0.7 90.6998 0 89.7998 0Z" fill="#006192"></path><path d="M71.7 8.69995H75.1V19.7999H71.7V8.69995ZM73.5 3.19995C74.6 3.19995 75.5 4.09995 75.5 5.19995C75.5 6.29995 74.6 7.19995 73.5 7.19995C72.4 7.19995 71.5 6.29995 71.5 5.19995C71.5 4.09995 72.4 3.19995 73.5 3.19995ZM77.3 8.69995H80.6V10.2H80.7C81.4 8.99995 82.7 8.29995 84 8.39995C87.5 8.39995 88.1 10.7 88.1 13.7V19.7999H84.7V14.4C84.7 13.1 84.7 11.4 82.9 11.4C81.1 11.4 80.8 12.8 80.8 14.2V19.7H77.4L77.3 8.69995Z" fill="white"></path><path d="M96.2 15.8C97.7 15.8 98.9 17 98.9 18.5C98.9 20 97.7 21.2 96.2 21.2C94.7 21.2 93.5 20 93.5 18.5C93.5 17 94.7 15.8 96.2 15.8ZM98.5 18.5C98.5 17.3 97.5 16.2 96.2 16.2C95 16.2 93.9 17.2 93.9 18.5C93.9 19.7 94.9 20.8 96.2 20.8C97.4 20.8 98.4 19.8 98.5 18.5Z" fill="black"></path><path d="M95.6998 18.7001C95.6998 19.0001 95.6998 19.4001 95.6998 19.7001C95.5998 19.7001 95.3998 19.7001 95.2998 19.7001C95.2998 18.9001 95.2998 18.1 95.2998 17.3C95.2998 17.3 95.2998 17.3 95.3998 17.3C95.6998 17.3 96.0998 17.3 96.3998 17.3C96.4998 17.3 96.6998 17.3 96.7998 17.4C97.0998 17.5 97.1998 17.7 97.1998 18C97.1998 18.3 97.0998 18.5001 96.7998 18.7001C96.8998 19.1001 97.0998 19.4 97.1998 19.8H97.0998C96.9998 19.8 96.8998 19.8 96.7998 19.8C96.7998 19.8 96.6998 19.8001 96.6998 19.7001C96.5998 19.4001 96.4998 19.1 96.3998 18.8C96.0998 18.7 95.8998 18.7001 95.6998 18.7001ZM95.6998 18.4C95.8998 18.4 96.0998 18.4 96.2998 18.4C96.3998 18.4 96.3998 18.4 96.4998 18.4C96.5998 18.4 96.6998 18.3 96.6998 18.1C96.6998 17.9 96.6998 17.8001 96.4998 17.7001C96.3998 17.7001 96.2998 17.6 96.1998 17.6C95.9998 17.6 95.7998 17.6 95.6998 17.6C95.6998 17.9 95.6998 18.1 95.6998 18.4Z" fill="black"></path><path d="M95.7002 18.4C95.7002 18.2 95.7002 17.9 95.7002 17.7C95.9002 17.7 96.1002 17.7 96.2002 17.7C96.3002 17.7 96.4002 17.6999 96.5002 17.7999C96.6002 17.8999 96.7002 18 96.7002 18.2C96.7002 18.3 96.6002 18.4 96.5002 18.5C96.4002 18.5 96.4002 18.5 96.3002 18.5C96.1002 18.4 95.9002 18.4 95.7002 18.4Z" fill="white"></path></g><defs><clipPath id="clip0_327_4"><rect width="98.9" height="23.2" fill="white"></rect></clipPath></defs></svg>