<?xml version="1.0" encoding="UTF-8"?>
<svg xmlns="http://www.w3.org/2000/svg" width="173" height="31" viewBox="0 0 173 31" fill="none">
  <path d="M0.126221 23V0.599998H5.56622L12.2222 15H12.2862L18.8782 0.599998H24.2862V23H19.9662V7.64H19.9022L14.1742 19.8H10.2382L4.51022 7.64H4.44622V23H0.126221ZM32.7995 23.384C31.4982 23.384 30.4209 23.1707 29.5675 22.744C28.7142 22.3173 28.0849 21.7413 27.6795 21.016C27.2742 20.2907 27.0715 19.4907 27.0715 18.616C27.0715 17.6347 27.3169 16.7707 27.8075 16.024C28.3195 15.2773 29.0875 14.7013 30.1115 14.296C31.1355 13.8693 32.4262 13.656 33.9835 13.656H37.9835C37.9835 12.8667 37.8662 12.2267 37.6315 11.736C37.4182 11.224 37.0769 10.84 36.6075 10.584C36.1595 10.328 35.5835 10.2 34.8795 10.2C34.0475 10.2 33.3329 10.392 32.7355 10.776C32.1595 11.1387 31.7969 11.704 31.6475 12.472H27.4555C27.5835 11.2987 27.9675 10.2853 28.6075 9.432C29.2689 8.57867 30.1435 7.91733 31.2315 7.448C32.3195 6.97867 33.5355 6.744 34.8795 6.744C36.4155 6.744 37.7382 7 38.8475 7.512C39.9569 8.00267 40.8102 8.73867 41.4075 9.72C42.0049 10.68 42.3035 11.8533 42.3035 13.24V23H38.6875L38.2075 20.536H38.1435C37.8662 20.984 37.5462 21.3893 37.1835 21.752C36.8209 22.0933 36.4155 22.392 35.9675 22.648C35.5409 22.8827 35.0609 23.064 34.5275 23.192C33.9942 23.32 33.4182 23.384 32.7995 23.384ZM34.0155 20.056C34.5915 20.056 35.1035 19.96 35.5515 19.768C35.9995 19.5547 36.3729 19.2773 36.6715 18.936C36.9915 18.5947 37.2369 18.2 37.4075 17.752C37.5995 17.2827 37.7275 16.8027 37.7915 16.312H34.4635C33.8022 16.312 33.2582 16.3973 32.8315 16.568C32.4262 16.7173 32.1275 16.9413 31.9355 17.24C31.7435 17.5173 31.6475 17.848 31.6475 18.232C31.6475 18.616 31.7435 18.9467 31.9355 19.224C32.1275 19.5013 32.4049 19.7147 32.7675 19.864C33.1302 19.992 33.5462 20.056 34.0155 20.056ZM45.1316 23V7.128H48.9076L49.2916 10.36H49.3556C49.7823 9.464 50.2729 8.74933 50.8276 8.216C51.4036 7.68267 52.0543 7.30933 52.7796 7.096C53.5049 6.86133 54.3156 6.744 55.2116 6.744V11.32H54.0276C53.3236 11.32 52.6836 11.3947 52.1076 11.544C51.5529 11.6933 51.0729 11.9493 50.6676 12.312C50.2836 12.6533 49.9849 13.112 49.7716 13.688C49.5583 14.264 49.4516 14.9787 49.4516 15.832V23H45.1316ZM67.6832 23L60.7712 14.264L66.8832 7.128H72.0032L64.0992 16.056L64.0672 12.632L73.0592 23H67.6832ZM57.0912 23V0.279999H61.4112V23H57.0912ZM81.5378 23V0.599998H89.3138C91.9165 0.599998 94.0711 1.06933 95.7778 2.008C97.4845 2.92533 98.7431 4.22667 99.5538 5.912C100.386 7.576 100.802 9.53867 100.802 11.8C100.802 14.0613 100.386 16.0347 99.5538 17.72C98.7431 19.384 97.4845 20.6853 95.7778 21.624C94.0925 22.5413 91.9378 23 89.3138 23H81.5378ZM85.8578 19.288H89.0898C90.9245 19.288 92.3751 18.9893 93.4418 18.392C94.5085 17.7947 95.2658 16.9413 95.7138 15.832C96.1618 14.7013 96.3858 13.3573 96.3858 11.8C96.3858 10.2213 96.1618 8.87733 95.7138 7.768C95.2658 6.63733 94.5085 5.77333 93.4418 5.176C92.3751 4.57867 90.9245 4.28 89.0898 4.28H85.8578V19.288ZM103.781 23V7.128H108.101V23H103.781ZM105.957 4.984C105.168 4.984 104.528 4.74933 104.037 4.28C103.546 3.81067 103.301 3.224 103.301 2.52C103.301 1.816 103.546 1.24 104.037 0.792C104.528 0.322666 105.168 0.0879993 105.957 0.0879993C106.746 0.0879993 107.386 0.322666 107.877 0.792C108.389 1.24 108.645 1.816 108.645 2.52C108.645 3.224 108.389 3.81067 107.877 4.28C107.386 4.74933 106.746 4.984 105.957 4.984ZM118.681 30.104C117.166 30.104 115.833 29.912 114.681 29.528C113.55 29.1653 112.675 28.6213 112.057 27.896C111.438 27.1707 111.129 26.2747 111.129 25.208C111.129 24.4613 111.321 23.768 111.705 23.128C112.089 22.488 112.643 21.9013 113.369 21.368C114.115 20.8347 115.033 20.376 116.121 19.992L117.721 22.136C116.761 22.456 116.067 22.84 115.641 23.288C115.214 23.7573 115.001 24.2693 115.001 24.824C115.001 25.2933 115.161 25.688 115.481 26.008C115.801 26.328 116.238 26.5627 116.793 26.712C117.347 26.8827 117.977 26.968 118.681 26.968C119.363 26.968 119.95 26.8827 120.441 26.712C120.953 26.5413 121.337 26.296 121.593 25.976C121.87 25.656 122.009 25.2827 122.009 24.856C122.009 24.28 121.806 23.8213 121.401 23.48C120.995 23.16 120.206 22.9573 119.033 22.872C117.945 22.7867 116.985 22.6587 116.153 22.488C115.321 22.3173 114.585 22.1253 113.945 21.912C113.326 21.6987 112.793 21.4533 112.345 21.176C111.897 20.8987 111.545 20.6213 111.289 20.344V19.608L114.681 15.992L117.465 16.952L113.753 20.888L114.969 18.872C115.182 18.9787 115.395 19.0853 115.609 19.192C115.843 19.2987 116.131 19.3947 116.473 19.48C116.835 19.5653 117.283 19.6507 117.817 19.736C118.35 19.8 119.033 19.8747 119.865 19.96C121.273 20.0667 122.425 20.3227 123.321 20.728C124.217 21.112 124.878 21.6453 125.305 22.328C125.731 22.9893 125.945 23.8 125.945 24.76C125.945 25.656 125.678 26.5093 125.145 27.32C124.633 28.1307 123.843 28.792 122.777 29.304C121.71 29.8373 120.345 30.104 118.681 30.104ZM118.713 18.296C117.369 18.296 116.206 18.04 115.225 17.528C114.265 17.016 113.518 16.3227 112.985 15.448C112.473 14.5733 112.217 13.6027 112.217 12.536C112.217 11.4693 112.473 10.4987 112.985 9.624C113.518 8.74933 114.265 8.056 115.225 7.544C116.206 7.01067 117.369 6.744 118.713 6.744C120.057 6.744 121.209 7.01067 122.169 7.544C123.15 8.056 123.897 8.74933 124.409 9.624C124.921 10.4987 125.177 11.4693 125.177 12.536C125.177 13.6027 124.921 14.5733 124.409 15.448C123.897 16.3227 123.15 17.016 122.169 17.528C121.209 18.04 120.057 18.296 118.713 18.296ZM118.713 15.096C119.523 15.096 120.185 14.8827 120.697 14.456C121.23 14.008 121.497 13.368 121.497 12.536C121.497 11.704 121.23 11.0747 120.697 10.648C120.185 10.2213 119.523 10.008 118.713 10.008C117.881 10.008 117.198 10.2213 116.665 10.648C116.153 11.0747 115.897 11.704 115.897 12.536C115.897 13.368 116.153 14.008 116.665 14.456C117.198 14.8827 117.881 15.096 118.713 15.096ZM121.305 10.104L120.601 7.128H127.257V9.56L121.305 10.104ZM130.102 23V7.128H134.422V23H130.102ZM132.278 4.984C131.488 4.984 130.848 4.74933 130.358 4.28C129.867 3.81067 129.622 3.224 129.622 2.52C129.622 1.816 129.867 1.24 130.358 0.792C130.848 0.322666 131.488 0.0879993 132.278 0.0879993C133.067 0.0879993 133.707 0.322666 134.198 0.792C134.71 1.24 134.966 1.816 134.966 2.52C134.966 3.224 134.71 3.81067 134.198 4.28C133.707 4.74933 133.067 4.984 132.278 4.984ZM145.034 23C143.903 23 142.911 22.8293 142.058 22.488C141.226 22.1253 140.575 21.5387 140.106 20.728C139.636 19.896 139.402 18.7653 139.402 17.336V10.648H136.682V7.128H139.402L139.882 2.808H143.722V7.128H147.946V10.648H143.722V17.4C143.722 18.1467 143.882 18.6693 144.202 18.968C144.522 19.2453 145.066 19.384 145.834 19.384H147.85V23H145.034ZM155.447 23.384C154.145 23.384 153.068 23.1707 152.215 22.744C151.361 22.3173 150.732 21.7413 150.327 21.016C149.921 20.2907 149.719 19.4907 149.719 18.616C149.719 17.6347 149.964 16.7707 150.455 16.024C150.967 15.2773 151.735 14.7013 152.759 14.296C153.783 13.8693 155.073 13.656 156.631 13.656H160.631C160.631 12.8667 160.513 12.2267 160.279 11.736C160.065 11.224 159.724 10.84 159.255 10.584C158.807 10.328 158.231 10.2 157.527 10.2C156.695 10.2 155.98 10.392 155.383 10.776C154.807 11.1387 154.444 11.704 154.295 12.472H150.103C150.231 11.2987 150.615 10.2853 151.255 9.432C151.916 8.57867 152.791 7.91733 153.879 7.448C154.967 6.97867 156.183 6.744 157.527 6.744C159.063 6.744 160.385 7 161.495 7.512C162.604 8.00267 163.457 8.73867 164.055 9.72C164.652 10.68 164.951 11.8533 164.951 13.24V23H161.335L160.855 20.536H160.791C160.513 20.984 160.193 21.3893 159.831 21.752C159.468 22.0933 159.063 22.392 158.615 22.648C158.188 22.8827 157.708 23.064 157.175 23.192C156.641 23.32 156.065 23.384 155.447 23.384ZM156.663 20.056C157.239 20.056 157.751 19.96 158.199 19.768C158.647 19.5547 159.02 19.2773 159.319 18.936C159.639 18.5947 159.884 18.2 160.055 17.752C160.247 17.2827 160.375 16.8027 160.439 16.312H157.111C156.449 16.312 155.905 16.3973 155.479 16.568C155.073 16.7173 154.775 16.9413 154.583 17.24C154.391 17.5173 154.295 17.848 154.295 18.232C154.295 18.616 154.391 18.9467 154.583 19.224C154.775 19.5013 155.052 19.7147 155.415 19.864C155.777 19.992 156.193 20.056 156.663 20.056ZM167.875 23V0.279999H172.195V23H167.875Z" fill="white"></path>
</svg>
