<svg xmlns="http://www.w3.org/2000/svg" width="89.4" height="13.71" viewBox="0 0 89.4 13.71"><defs><style>.cls-1{fill:#f48025;}</style></defs><g id="Layer_2" data-name="Layer 2"><g id="_1170px_grid" data-name="1170px grid"><polygon class="cls-1" points="7.21 0 9.44 4.51 14.42 5.24 10.81 8.75 11.67 13.71 7.21 11.37 2.75 13.71 3.6 8.75 0 5.24 4.98 4.51 7.21 0"></polygon><polygon class="cls-1" points="25.95 0 28.18 4.51 33.16 5.24 29.56 8.75 30.41 13.71 25.95 11.37 21.5 13.71 22.35 8.75 18.75 5.24 23.73 4.51 25.95 0"></polygon><polygon class="cls-1" points="44.7 0 46.93 4.51 51.91 5.24 48.3 8.75 49.16 13.71 44.7 11.37 40.24 13.71 41.09 8.75 37.49 5.24 42.47 4.51 44.7 0"></polygon><polygon class="cls-1" points="63.45 0 65.67 4.51 70.66 5.24 67.05 8.75 67.9 13.71 63.45 11.37 58.99 13.71 59.84 8.75 56.24 5.24 61.22 4.51 63.45 0"></polygon><polygon class="cls-1" points="82.19 0 84.42 4.51 89.4 5.24 85.8 8.75 86.65 13.71 82.19 11.37 77.73 13.71 78.59 8.75 74.98 5.24 79.96 4.51 82.19 0"></polygon></g></g></svg>